<?xml version="1.0" standalone="no"?>
<!DOCTYPE svg PUBLIC "-//W3C//DTD SVG 20010904//EN"
 "http://www.w3.org/TR/2001/REC-SVG-20010904/DTD/svg10.dtd">
<svg version="1.0" xmlns="http://www.w3.org/2000/svg"
 width="1400.000000pt" height="270.000000pt" viewBox="0 0 1400.000000 270.000000"
 preserveAspectRatio="xMidYMid meet">
<metadata>
Created by potrace 1.15, written by Peter Selinger 2001-2017
</metadata>
<g transform="translate(0.000000,270.000000) scale(0.100000,-0.100000)"
fill="#000000" stroke="none">
<path d="M12504 2596 c-6 -15 2 -52 23 -106 5 -12 1 -11 -14 3 -11 9 -25 17
-33 17 -22 0 -5 -101 29 -169 41 -80 32 -78 -13 4 -42 74 -96 135 -120 135
-24 0 -20 -16 23 -100 58 -113 67 -147 46 -171 -17 -18 -19 -16 -65 77 -27 53
-57 105 -68 117 -10 12 -27 36 -37 54 -20 33 -68 54 -86 36 -6 -6 16 -63 60
-154 80 -166 90 -203 60 -220 -18 -9 -28 -3 -83 55 -116 123 -148 63 -38 -72
40 -50 36 -60 -32 -77 -43 -11 -44 -11 -61 18 -11 19 -17 49 -17 83 1 70 -18
87 -53 47 -14 -15 -28 -39 -31 -53 -14 -60 -14 -60 -42 -54 -77 17 -132 36
-127 44 3 4 29 16 58 26 86 28 163 71 194 109 38 45 73 150 90 262 5 35 2 44
-11 49 -25 9 -41 -11 -70 -86 l-25 -65 4 45 c6 51 -11 85 -36 75 -26 -10 -40
-53 -46 -142 l-6 -84 -48 -24 c-41 -21 -48 -22 -53 -9 -11 28 -6 148 8 199 27
103 -20 128 -66 35 -34 -70 -48 -133 -48 -221 l0 -70 -27 3 c-25 3 -31 11 -51
72 -23 70 -30 141 -21 228 6 57 0 71 -32 66 -17 -2 -31 -17 -46 -48 -53 -103
-7 -369 83 -487 15 -20 40 -37 66 -45 l42 -12 -63 -11 c-95 -15 -103 -45 -39
-140 46 -68 93 -90 189 -90 l75 0 13 -50 c23 -87 23 -102 7 -157 -24 -82 -58
-115 -143 -138 -40 -11 -111 -36 -157 -55 -97 -40 -176 -46 -281 -20 -87 21
-142 18 -201 -9 -28 -13 -55 -29 -59 -36 -5 -8 -14 -5 -30 10 -38 36 -90 48
-182 42 -65 -4 -98 -1 -145 14 -55 16 -65 23 -91 66 -47 76 -67 62 -67 -45 0
-71 22 -127 66 -171 61 -61 134 -71 238 -32 61 23 91 30 127 27 15 -1 15 -5 3
-39 -7 -20 -13 -49 -14 -64 0 -26 -42 -68 -98 -97 -23 -12 -70 -1 -200 48
l-53 20 -131 -85 -130 -86 4 -59 c3 -36 11 -66 20 -75 14 -14 19 -14 51 7 19
13 43 36 52 52 10 17 39 38 73 54 32 14 65 30 74 34 23 12 58 11 58 0 0 -6
-20 -13 -43 -16 -46 -7 -97 -43 -261 -181 -72 -62 -106 -109 -106 -148 0 -17
70 -86 87 -86 16 0 57 64 73 113 17 55 152 157 226 171 11 2 39 9 64 16 25 7
50 13 55 14 49 10 86 21 123 37 24 11 74 26 111 34 36 8 95 22 131 30 36 8 99
17 140 20 41 2 120 15 175 29 55 14 126 32 158 40 33 8 62 17 65 20 3 3 19 -5
36 -18 17 -12 54 -34 83 -48 48 -23 60 -24 176 -20 l124 4 149 -74 c82 -41
176 -80 208 -88 l59 -14 24 30 c13 16 26 41 30 56 5 26 7 27 32 14 14 -8 39
-28 54 -46 26 -29 30 -30 50 -17 36 23 88 98 85 121 -2 17 -11 22 -51 24 -35
2 -68 15 -125 49 -164 97 -194 107 -324 111 l-117 4 24 48 c14 27 25 59 25 70
0 11 14 48 31 80 28 54 31 69 31 152 0 66 -5 104 -17 132 -13 32 -14 40 -3 47
24 16 52 9 111 -27 65 -40 116 -47 148 -18 10 9 19 26 19 37 0 11 18 39 40 63
70 76 53 111 -85 178 -93 45 -211 138 -200 157 3 4 50 38 105 74 157 104 194
168 171 293 -15 82 -60 177 -100 216 -27 26 -31 27 -37 12z m-234 -612 c0 -3
-15 -2 -34 1 -55 11 -136 -46 -136 -96 0 -28 11 -23 54 22 38 41 39 41 97 37
60 -4 68 -1 47 20 -9 9 -9 12 3 12 8 0 44 -28 80 -62 35 -35 91 -76 122 -91
l57 -28 -26 -23 c-15 -12 -28 -31 -30 -42 -4 -32 -16 -64 -24 -64 -16 0 -40
38 -34 54 8 21 -28 22 -46 1 -7 -8 -16 -15 -21 -15 -5 0 -9 7 -9 15 0 8 -6 15
-14 15 -11 0 -13 7 -6 29 11 40 2 77 -30 111 -32 34 -72 47 -109 34 -55 -20
-51 -136 6 -204 35 -43 19 -53 -71 -44 l-69 6 7 -28 c4 -15 15 -34 25 -41 10
-7 21 -31 25 -54 10 -60 52 -140 106 -201 l48 -54 -17 -32 c-20 -39 -85 -81
-124 -82 -42 0 -99 -29 -95 -49 4 -19 74 -59 143 -82 l50 -16 -70 -7 c-38 -4
-105 -14 -149 -22 l-78 -15 -102 44 c-55 24 -117 47 -137 51 -40 7 -179 -16
-236 -41 -21 -8 -65 -17 -98 -18 -37 -2 -115 -21 -203 -49 -79 -25 -175 -51
-212 -57 -67 -12 -70 -11 -129 20 -98 51 -162 41 -283 -44 -42 -31 -58 -34
-58 -14 0 9 168 120 191 126 9 3 66 -12 127 -32 l109 -37 43 29 c23 15 54 36
69 45 38 25 101 91 101 107 0 11 -5 10 -25 -3 -13 -9 -27 -16 -30 -16 -3 0 4
23 15 52 24 64 70 113 127 134 44 17 61 17 198 -7 105 -17 186 -7 283 36 46
20 113 42 150 50 56 12 72 20 99 51 39 44 73 130 73 183 0 21 -7 58 -15 81
-21 59 -19 79 10 106 30 28 32 44 5 44 -13 0 -18 5 -14 15 5 12 -3 15 -43 15
-40 0 -59 6 -92 31 -23 16 -52 34 -64 39 -15 7 -8 7 23 3 25 -3 74 -17 109
-31 45 -18 66 -22 69 -14 2 7 14 12 27 12 22 0 67 42 77 71 6 17 119 38 141
27 9 -5 17 -11 17 -14z m38 -445 c14 -58 16 -178 3 -197 -19 -31 -126 123
-145 211 -6 25 -4 27 16 22 13 -3 37 -1 53 4 55 17 61 14 73 -40z m-1562 -230
c48 -17 81 -21 175 -20 79 1 121 -3 133 -12 15 -11 12 -12 -22 -9 -22 2 -74
-6 -116 -17 -42 -12 -93 -21 -112 -21 -50 0 -100 34 -126 83 -14 29 -16 38 -6
29 8 -6 42 -21 74 -33z"/>
<path d="M9684 2535 c-3 -8 1 -34 9 -57 27 -79 28 -83 12 -55 -9 16 -24 27
-37 27 -19 0 -20 -4 -15 -50 3 -27 15 -71 26 -97 11 -27 15 -40 8 -29 -70 109
-124 162 -145 142 -3 -4 15 -48 41 -99 58 -116 65 -142 42 -167 -17 -18 -19
-16 -62 72 -63 130 -134 218 -175 218 -29 0 -22 -24 47 -164 35 -72 67 -150
71 -172 5 -37 4 -42 -16 -47 -17 -4 -35 8 -85 59 -72 73 -112 87 -101 33 3
-16 27 -57 52 -90 52 -68 51 -76 -21 -94 l-44 -12 -17 35 c-10 21 -16 57 -15
88 1 38 -3 53 -15 58 -13 5 -11 11 11 40 34 45 73 146 86 224 18 118 -15 139
-61 40 -29 -62 -29 -63 -30 -27 0 21 -7 42 -16 50 -14 11 -19 10 -34 -9 -21
-26 -40 -104 -40 -166 0 -46 -15 -63 -75 -86 -23 -9 -24 -7 -31 38 -4 29 -1
81 8 137 17 101 14 125 -13 125 -41 0 -99 -167 -99 -284 0 -63 -1 -66 -24 -66
-19 0 -28 10 -47 58 -21 49 -24 73 -24 182 0 113 -2 125 -18 128 -45 9 -87
-74 -87 -171 0 -84 30 -210 70 -293 40 -84 63 -106 121 -122 33 -8 33 -9 -23
-14 -100 -11 -116 -33 -78 -108 48 -93 126 -136 233 -127 l54 4 17 -58 c9 -32
16 -76 16 -97 0 -41 -36 -121 -60 -133 -8 -5 -53 -27 -100 -49 -46 -23 -106
-57 -132 -76 -64 -48 -158 -78 -352 -115 -47 -9 -65 -18 -94 -48 l-36 -38 -34
24 c-43 28 -112 31 -174 6 -25 -10 -70 -18 -105 -18 -55 0 -65 3 -93 30 -17
16 -33 40 -36 52 -11 42 -34 27 -34 -22 0 -133 93 -237 215 -239 51 -1 67 4
110 31 28 18 65 36 83 39 29 6 32 4 32 -17 -2 -97 -39 -153 -210 -319 -79 -77
-89 -92 -111 -155 -16 -49 -23 -94 -23 -151 -1 -105 6 -114 91 -114 78 0 84
10 49 82 -22 46 -24 59 -16 94 15 65 46 130 72 149 45 32 253 143 261 138 4
-2 7 -32 7 -67 0 -100 0 -100 168 -87 112 9 146 9 162 -1 11 -7 20 -16 20 -20
0 -18 30 -6 64 24 47 42 46 62 -5 89 -38 19 -51 20 -145 14 l-104 -7 16 38 c9
20 24 66 35 100 27 88 57 120 117 129 111 15 203 8 293 -24 48 -16 102 -33
121 -36 l35 -7 -57 -54 c-31 -30 -66 -54 -77 -54 -32 0 -46 -25 -38 -67 8 -42
32 -93 43 -93 29 0 86 44 125 95 24 33 61 76 81 95 21 19 53 56 73 83 40 54
37 63 -26 98 l-36 20 40 -6 c22 -3 72 -6 112 -7 l71 -2 -24 -29 c-14 -16 -31
-42 -39 -57 -9 -17 -25 -30 -44 -33 -38 -8 -46 -36 -28 -97 24 -83 59 -65 162
85 33 48 72 103 88 122 33 44 35 76 5 91 -28 13 -157 52 -173 52 -6 0 -19 6
-28 13 -16 11 -16 16 -2 65 9 29 25 68 37 88 30 50 36 164 14 244 -9 33 -14
65 -11 70 12 19 50 10 110 -26 76 -46 118 -49 151 -10 14 15 22 32 18 37 -3 6
15 32 40 59 25 27 46 55 46 63 0 30 -44 67 -135 112 -88 44 -195 127 -195 151
0 5 43 37 94 72 156 104 194 162 182 273 -7 70 -33 143 -76 208 -33 53 -57 69
-66 46z m-212 -604 c13 -5 52 -36 87 -70 34 -34 90 -75 123 -92 l60 -30 -26
-24 c-32 -30 -34 -68 -4 -89 32 -22 16 -20 -37 6 -25 12 -45 28 -45 35 0 21
-29 15 -54 -12 -15 -17 -34 -25 -55 -25 l-32 0 23 31 c49 65 21 159 -56 188
-58 22 -86 7 -102 -54 -19 -71 -10 -118 32 -154 40 -36 33 -44 -46 -47 -30 -1
-58 -2 -62 -3 -14 -2 -8 -28 10 -45 11 -9 24 -40 31 -69 14 -65 56 -139 109
-194 l41 -42 -20 -45 c-23 -53 -131 -155 -172 -163 -15 -3 -30 -10 -33 -14 -3
-5 -24 -6 -46 -3 -56 9 -48 -13 17 -46 28 -15 59 -32 70 -38 18 -12 17 -12
-10 -8 -16 3 -79 8 -138 11 -102 7 -109 8 -119 31 -8 17 -8 41 -1 82 6 31 9
59 6 62 -10 10 -32 -34 -39 -76 l-6 -44 -78 0 c-58 0 -81 -4 -91 -16 -7 -8
-31 -25 -53 -36 -49 -25 -210 -122 -303 -185 -64 -42 -261 -143 -279 -143 -5
0 19 28 52 63 33 34 76 82 95 107 18 25 39 51 46 58 7 7 13 35 13 60 0 33 10
68 34 117 37 78 65 100 137 111 136 19 275 66 342 114 69 50 187 113 187 101
0 -21 29 -10 54 20 30 35 53 85 66 142 6 29 3 59 -12 118 l-20 79 26 21 c29
23 34 49 10 49 -10 0 -14 6 -10 15 4 12 -5 15 -47 15 -44 0 -61 6 -110 39
l-58 40 38 -6 c21 -3 65 -16 99 -29 66 -26 84 -29 84 -14 0 6 8 10 18 10 21 1
51 26 74 62 10 14 28 29 40 31 42 8 117 7 140 -2z m19 -443 c14 -49 14 -197 1
-210 -21 -21 -124 131 -142 209 -7 30 -6 32 19 27 14 -2 40 0 56 5 49 15 54
13 66 -31z"/>
<path d="M7380 2421 c0 -10 7 -35 16 -56 17 -41 14 -54 -6 -30 -7 8 -19 15
-27 15 -25 0 -11 -87 25 -164 17 -36 30 -66 28 -66 -2 0 -20 29 -41 64 -41 70
-100 136 -121 136 -21 0 -18 -9 36 -121 27 -57 50 -110 50 -118 0 -8 -8 -23
-17 -33 -16 -17 -18 -15 -54 61 -67 143 -155 247 -190 225 -16 -9 -10 -26 50
-149 54 -108 90 -209 80 -220 -2 -2 -15 -6 -29 -9 -21 -5 -31 2 -65 45 -52 66
-115 101 -115 64 0 -24 28 -74 68 -123 40 -50 36 -60 -34 -78 -45 -11 -45 -11
-61 20 -9 17 -17 56 -17 86 -1 47 -4 55 -21 58 -24 3 -61 -47 -71 -95 l-6 -30
-70 17 c-38 10 -72 20 -74 23 -3 2 10 10 28 17 190 70 220 96 267 225 38 105
47 207 18 213 -13 3 -25 -12 -46 -60 l-29 -63 -4 40 c-2 32 -7 41 -25 43 -32
5 -51 -41 -60 -140 l-8 -83 -44 -24 c-35 -19 -45 -21 -52 -10 -13 20 -10 125
5 195 22 105 -15 142 -58 57 -38 -75 -56 -150 -56 -230 0 -71 -1 -73 -25 -73
-30 0 -48 38 -71 145 -12 55 -12 80 -3 123 19 92 -10 132 -58 80 -66 -74 -54
-279 26 -450 36 -75 53 -93 106 -111 l39 -14 -53 -7 c-69 -9 -91 -21 -91 -49
0 -38 58 -125 102 -154 37 -25 51 -28 123 -28 l82 0 18 -73 c20 -80 14 -133
-24 -197 -17 -30 -18 -30 -92 -27 -124 6 -170 -23 -280 -174 -60 -84 -104
-128 -158 -160 -21 -12 -36 -32 -43 -57 -9 -29 -15 -36 -27 -31 -68 28 -69 28
-123 6 -75 -31 -98 -28 -154 18 -64 53 -80 49 -76 -15 3 -57 28 -111 64 -138
55 -41 150 -39 215 6 54 36 91 44 99 21 19 -58 31 -80 62 -110 42 -41 78 -44
148 -14 26 12 67 24 90 27 44 6 94 -2 94 -15 0 -4 -31 -27 -68 -52 -53 -36
-78 -46 -122 -50 -54 -5 -54 -6 -63 -43 -12 -49 5 -92 33 -84 13 3 22 -3 30
-24 7 -16 16 -29 20 -29 25 0 116 54 171 101 81 70 135 109 148 109 6 0 20 -5
30 -12 15 -9 34 -8 88 5 76 18 108 14 170 -23 19 -11 38 -20 42 -20 10 0 61
78 61 94 0 7 -3 16 -7 20 -4 4 -8 17 -8 29 0 27 -56 45 -168 55 l-79 7 31 42
c17 23 54 57 83 76 85 55 138 126 138 185 0 11 14 45 31 78 29 53 31 66 31
153 0 63 -5 111 -15 138 -16 43 -16 43 8 49 16 4 40 -2 67 -17 104 -55 116
-60 142 -53 31 7 67 49 60 68 -3 8 5 22 18 32 13 11 34 33 47 51 l24 32 -20
32 c-14 25 -44 46 -123 86 -72 35 -120 67 -153 101 l-48 49 99 66 c169 112
204 170 185 297 -6 38 -22 93 -35 122 -42 91 -108 151 -108 99z m-207 -592
c12 -7 51 -40 87 -74 36 -34 91 -74 123 -89 l57 -28 -23 -22 c-14 -13 -32 -35
-42 -49 -21 -33 -60 -38 -50 -7 9 28 -20 26 -49 -4 -31 -30 -71 -42 -61 -18
16 38 25 97 20 123 -8 34 -58 85 -93 94 -14 3 -38 1 -53 -5 -54 -23 -49 -136
9 -198 15 -16 34 -31 42 -34 25 -9 3 -21 -48 -26 -28 -2 -59 1 -71 8 -17 9
-26 9 -37 -1 -20 -16 -18 -46 5 -58 11 -6 21 -26 25 -51 9 -58 56 -147 109
-205 l44 -50 -22 -47 c-29 -62 -70 -115 -103 -132 -38 -19 -102 -29 -102 -16
0 27 -21 4 -48 -55 -17 -35 -45 -85 -63 -111 -29 -43 -33 -45 -48 -30 -11 12
-17 36 -18 79 -3 150 -32 247 -43 149 -5 -40 -8 -44 -56 -66 -28 -13 -55 -29
-58 -35 -5 -8 -16 -7 -39 3 -56 23 -107 29 -107 13 0 -9 14 -17 35 -21 65 -13
195 -86 251 -142 66 -67 49 -70 -67 -14 -98 47 -157 52 -244 19 -30 -11 -63
-18 -72 -14 -32 10 -74 55 -84 87 -17 60 3 98 79 150 24 16 74 71 112 121 123
164 141 177 243 177 38 0 67 -4 67 -10 0 -21 30 -8 56 24 63 78 76 155 47 268
l-17 67 27 21 c33 26 37 55 7 47 -17 -4 -20 -2 -15 14 6 17 1 19 -42 19 -37 0
-60 8 -103 35 -53 34 -53 35 -23 35 17 0 63 -13 103 -29 58 -24 72 -27 77 -15
3 8 13 14 22 14 20 1 54 29 70 58 19 36 136 56 184 31z m16 -443 c12 -50 14
-171 2 -201 -7 -18 -11 -16 -45 20 -37 41 -89 138 -100 187 -6 26 -4 27 21 22
16 -2 42 0 58 5 48 15 52 13 64 -33z"/>
<path d="M2463 2263 c-3 -9 1 -36 10 -61 10 -25 15 -47 12 -50 -2 -3 -7 3 -11
12 -3 9 -15 16 -26 16 -18 0 -20 -5 -16 -49 3 -26 19 -78 36 -115 17 -36 30
-66 28 -66 -2 0 -20 28 -40 63 -44 74 -99 137 -120 137 -23 0 -21 -7 34 -121
27 -57 50 -110 50 -118 0 -8 -8 -23 -17 -33 -16 -17 -18 -15 -55 63 -40 86
-128 213 -154 223 -50 19 -58 -13 -20 -78 38 -65 104 -218 111 -257 6 -32 4
-37 -17 -42 -19 -5 -34 5 -84 58 -71 75 -111 88 -100 34 3 -17 26 -58 52 -91
52 -68 50 -75 -22 -94 -45 -11 -45 -11 -61 20 -10 18 -16 52 -16 83 1 32 -4
56 -12 63 -11 9 -8 19 15 54 35 51 75 169 84 249 6 48 5 58 -9 63 -22 9 -40
-11 -64 -71 l-20 -50 0 36 c-1 66 -51 76 -71 14 -6 -18 -14 -68 -18 -110 l-7
-78 -44 -24 c-41 -21 -46 -22 -54 -7 -10 18 -3 161 11 214 5 20 5 46 1 58 -16
42 -39 25 -76 -55 -32 -68 -37 -90 -41 -175 -5 -95 -5 -98 -28 -98 -28 0 -48
40 -70 145 -12 55 -12 80 -3 123 13 65 6 102 -21 102 -52 0 -85 -88 -77 -207
8 -113 22 -168 67 -259 41 -84 63 -106 121 -122 33 -8 33 -9 -23 -14 -106 -12
-119 -36 -68 -125 48 -84 118 -119 219 -110 l57 4 17 -66 c22 -84 21 -98 -4
-166 -15 -40 -26 -56 -42 -59 -12 -3 -33 -7 -47 -9 -14 -3 -56 -14 -95 -25
-57 -17 -96 -20 -211 -19 -139 2 -141 2 -184 -27 -39 -25 -44 -27 -52 -12 -21
37 -73 88 -107 105 -74 37 -124 34 -233 -13 -37 -16 -37 -16 -68 15 -30 30
-60 34 -60 7 0 -29 49 -116 81 -142 36 -31 41 -31 237 -10 33 4 65 1 84 -7
l31 -13 -24 -19 c-13 -10 -57 -49 -97 -86 -87 -78 -101 -84 -168 -76 -84 10
-96 0 -118 -96 -10 -46 -26 -90 -34 -96 -9 -8 -44 -13 -84 -13 l-68 0 -15 -36
c-8 -20 -15 -48 -15 -61 l0 -25 90 4 90 3 21 -70 c12 -38 25 -77 29 -85 16
-34 124 -38 137 -5 3 8 -13 46 -36 84 -47 79 -51 112 -18 145 23 23 122 77
129 71 9 -9 172 -12 199 -5 20 6 43 4 71 -6 53 -18 125 -18 179 2 41 14 86 13
149 -3 8 -2 57 -7 108 -10 89 -6 93 -7 88 -27 -4 -12 -9 -50 -12 -86 l-5 -65
81 -64 c49 -38 94 -83 111 -112 33 -52 48 -61 96 -55 81 11 73 40 -42 157 -52
53 -95 103 -95 111 0 8 19 43 42 77 l42 63 80 -4 c66 -3 94 -10 151 -37 69
-33 70 -34 100 -16 16 10 71 40 122 66 83 44 95 47 125 37 57 -18 88 -21 88
-9 0 6 12 29 26 51 15 22 24 46 21 53 -14 37 -153 24 -259 -23 -25 -11 -68
-25 -97 -31 -52 -11 -52 -11 -136 38 -48 27 -85 54 -85 63 1 8 7 26 15 40 8
14 14 35 15 47 0 13 14 50 31 83 29 54 32 67 32 152 -1 59 -6 108 -16 135 -14
37 -14 42 0 47 28 11 48 6 108 -30 33 -20 74 -37 92 -37 38 -1 73 27 73 58 0
12 14 34 31 51 84 79 68 118 -75 188 -58 28 -118 67 -152 99 l-56 51 28 23
c16 13 59 42 96 64 76 46 133 104 155 158 30 71 1 205 -67 309 -38 57 -57 70
-67 45z m-127 -671 c39 -37 96 -80 127 -95 l58 -28 -25 -20 c-17 -14 -26 -30
-26 -50 0 -34 -8 -36 -43 -9 -14 11 -31 20 -38 20 -17 0 -49 -30 -49 -47 0 -7
-9 -13 -20 -13 -21 0 -27 15 -10 25 15 9 12 101 -4 140 -16 38 -68 75 -104 75
-31 0 -62 -17 -62 -34 0 -8 -7 -17 -16 -20 -14 -5 -16 -16 -11 -57 8 -62 46
-117 88 -126 43 -8 35 -21 -18 -29 -34 -5 -61 -2 -90 8 l-43 16 0 -28 c0 -15
8 -35 19 -44 10 -9 21 -35 25 -57 9 -56 56 -145 106 -201 23 -27 37 -48 30
-48 -6 0 -22 -25 -35 -55 -20 -45 -29 -55 -49 -55 -13 0 -30 -7 -37 -16 -12
-14 -7 -21 31 -55 74 -65 102 -86 164 -119 60 -33 81 -35 186 -14 19 4 17 1
-8 -10 -18 -9 -46 -25 -62 -36 -15 -11 -37 -20 -49 -20 -21 0 -98 28 -167 61
-22 10 -60 19 -83 19 -27 0 -73 13 -124 35 -96 42 -107 43 -107 10 0 -24 -2
-25 -69 -25 -119 0 -331 48 -331 75 0 22 -21 18 -108 -20 -107 -47 -206 -61
-313 -45 -72 10 -83 10 -100 -6 -34 -30 -81 -145 -82 -200 -2 -45 -4 -51 -18
-43 -29 15 -29 52 -4 160 14 57 27 115 30 128 6 22 10 23 53 18 89 -11 127 4
206 80 106 104 189 171 232 189 32 14 60 15 156 10 110 -7 125 -5 215 20 69
20 98 24 101 16 13 -39 70 19 101 103 26 68 26 100 4 187 l-17 67 27 21 c37
29 36 55 0 46 -108 -27 -202 -14 -258 35 -43 39 -44 49 -2 49 31 0 52 -11 127
-66 29 -21 42 -24 74 -19 44 7 56 12 56 26 0 5 -21 9 -47 9 -39 0 -59 7 -106
39 l-58 40 38 -6 c21 -3 65 -16 97 -29 63 -26 91 -30 81 -14 -3 6 4 10 18 10
24 0 77 47 77 68 0 6 17 16 38 21 106 27 140 17 228 -67z m-67 -376 c13 -52
14 -185 2 -204 -18 -30 -122 120 -141 205 -7 31 -6 32 19 27 14 -2 40 0 56 5
48 15 52 13 64 -33z"/>
<path d="M5124 2265 c-3 -8 1 -34 9 -57 27 -79 28 -83 12 -55 -9 16 -24 27
-37 27 -19 0 -20 -4 -16 -49 3 -26 19 -79 36 -117 17 -38 26 -60 19 -50 -77
121 -113 169 -133 178 -13 6 -27 8 -31 4 -4 -4 14 -48 39 -99 59 -118 66 -142
42 -168 -17 -19 -18 -18 -55 60 -61 130 -140 231 -180 231 -30 0 -24 -28 31
-134 54 -107 90 -197 90 -225 0 -11 -9 -21 -21 -24 -17 -5 -35 8 -84 59 -72
73 -112 87 -101 33 3 -16 27 -57 52 -90 52 -68 51 -76 -20 -94 -43 -11 -44
-11 -61 18 -11 19 -17 49 -17 83 0 33 -5 57 -14 64 -11 10 -10 17 10 44 34 44
75 149 86 224 19 118 -14 139 -60 40 -29 -62 -29 -63 -30 -27 0 20 -7 42 -15
49 -36 30 -68 -49 -78 -189 -2 -30 -8 -38 -47 -58 l-45 -24 -7 23 c-10 39 -8
120 6 186 16 73 11 102 -15 102 -41 0 -99 -163 -99 -277 0 -74 0 -74 -26 -71
-21 2 -31 13 -47 53 -18 42 -21 71 -22 180 0 118 -2 130 -18 133 -11 2 -29 -6
-42 -18 -68 -64 -56 -282 25 -446 41 -84 63 -106 121 -122 33 -8 33 -9 -23
-14 -100 -11 -116 -33 -78 -108 48 -94 130 -139 234 -126 l53 6 18 -74 c14
-56 16 -84 9 -116 l-9 -43 -130 -3 -130 -3 -107 50 c-96 46 -110 49 -142 40
-34 -9 -36 -8 -42 17 -10 50 -53 131 -78 147 -36 24 -94 28 -151 11 -27 -8
-69 -20 -92 -27 l-43 -13 -40 39 c-34 33 -42 37 -50 25 -13 -20 -13 -22 10
-89 48 -142 101 -181 218 -159 70 13 100 14 130 4 l23 -8 -32 -36 c-69 -78
-72 -131 -14 -219 l34 -51 -22 -15 c-20 -13 -26 -13 -42 -1 -16 12 -21 12 -37
-2 -13 -12 -30 -15 -63 -12 -51 6 -51 6 -137 -93 -38 -44 -68 -69 -90 -75 -31
-9 -33 -12 -36 -62 -3 -58 10 -92 37 -92 10 0 61 39 112 88 52 48 86 76 76 62
-9 -14 -24 -35 -33 -47 -15 -21 -14 -25 3 -60 10 -21 33 -46 52 -57 33 -19 34
-19 47 -1 8 10 14 35 14 55 0 38 46 115 74 126 8 3 47 -10 88 -28 40 -19 90
-35 111 -37 75 -6 157 79 141 144 -5 22 -4 24 13 18 39 -16 143 -78 143 -85 0
-5 -28 -29 -62 -54 -35 -25 -66 -51 -70 -58 -13 -22 -41 -244 -34 -270 7 -29
29 -43 80 -52 79 -12 96 19 47 86 l-28 39 25 74 26 74 81 39 c44 21 83 39 86
41 3 2 12 -18 19 -44 33 -127 39 -138 78 -146 27 -6 112 -65 164 -114 14 -14
29 -40 33 -59 7 -41 29 -54 90 -54 51 0 85 14 85 34 0 31 -54 116 -89 140 -20
14 -41 26 -45 26 -5 0 -40 26 -78 57 l-70 57 6 44 c3 25 6 58 6 75 0 17 2 28
5 25 3 -3 22 0 43 7 44 15 98 86 108 143 3 20 20 64 36 97 39 77 47 195 19
279 -15 47 -16 56 -4 61 28 10 49 4 108 -31 33 -20 74 -37 92 -37 37 -1 73 27
73 56 0 11 20 42 45 68 25 26 45 53 45 60 0 31 -47 71 -136 114 -90 44 -194
125 -194 151 0 6 42 38 94 72 155 102 194 161 181 275 -8 75 -35 146 -77 209
-36 52 -56 66 -64 43z m-212 -604 c13 -5 52 -37 87 -71 35 -33 90 -74 123 -91
l59 -30 -25 -20 c-30 -24 -34 -63 -9 -91 20 -22 6 -23 -47 -2 -32 13 -39 20
-35 35 4 12 2 19 -7 19 -23 0 -58 -30 -58 -51 0 -15 -7 -19 -33 -19 -18 0 -54
-7 -80 -16 -30 -10 -70 -15 -112 -12 -69 3 -80 -5 -47 -36 11 -9 24 -40 31
-69 14 -65 60 -146 111 -197 45 -45 47 -50 23 -50 -19 0 -51 -44 -73 -100 -17
-44 -29 -60 -46 -60 -10 0 -12 9 -7 31 5 25 3 31 -8 27 -16 -5 -45 -133 -55
-246 -6 -67 -5 -74 16 -97 l23 -25 -29 1 c-61 2 -78 12 -86 54 -16 78 -51 181
-81 238 -31 59 -47 72 -47 38 0 -19 -4 -18 -62 8 -35 16 -98 44 -142 63 -74
33 -80 38 -110 93 -49 93 -77 84 -35 -12 12 -26 21 -59 21 -73 0 -14 7 -34 14
-45 26 -36 16 -67 -37 -112 l-49 -42 -52 16 c-29 8 -74 26 -100 39 -26 13 -53
24 -61 24 -16 0 -82 -59 -89 -80 -3 -8 -8 -12 -12 -9 -7 7 43 122 66 152 12
16 16 17 44 2 17 -8 53 -18 80 -21 38 -5 56 -14 81 -40 18 -19 37 -34 42 -34
30 0 -2 54 -101 173 -80 96 -93 138 -63 196 19 38 106 101 148 108 25 4 49 -3
95 -26 34 -17 87 -41 118 -52 51 -19 62 -20 114 -9 34 7 78 10 104 6 l45 -7
-19 -32 c-23 -38 -25 -47 -7 -47 21 0 54 41 82 103 30 64 31 130 5 219 -14 46
-14 47 13 68 33 26 37 55 7 47 -17 -4 -20 -2 -15 14 6 17 1 19 -42 19 -39 0
-58 7 -106 39 l-58 40 38 -6 c21 -3 65 -16 99 -29 65 -26 89 -30 79 -14 -3 6
4 10 17 10 26 0 78 43 78 65 0 28 131 46 182 26z m-981 -261 c10 -6 26 -24 34
-40 l16 -30 -58 0 c-32 0 -80 -3 -108 -6 -40 -4 -57 -1 -85 17 l-34 21 59 24
c64 24 144 31 176 14z m1000 -187 c13 -64 13 -193 0 -206 -21 -21 -126 135
-145 217 -6 26 -5 28 17 22 18 -4 91 10 114 23 1 1 7 -25 14 -56z"/>
<path d="M4817 1578 c-11 -8 -19 -32 -23 -63 -13 -129 121 -199 173 -90 15 32
16 40 3 78 -24 68 -107 109 -153 75z"/>
</g>
</svg>
